<?xml version="1.0" encoding="UTF-8" standalone="no"?>
<!-- Created with Inkscape (http://www.inkscape.org/) -->
<svg
   xmlns:svg="http://www.w3.org/2000/svg"
   xmlns="http://www.w3.org/2000/svg"
   version="1.0"
   width="600"
   height="475"
   id="svg3382">
  <defs
     id="defs3385" />
  <path
     d="M 291.31491,434.30123 C 274.27128,432.72617 264.93163,431.25323 253.6765,428.36535 C 215.68988,418.61861 183.3434,400.00227 154.8004,371.45926 C 113.23578,329.89465 89.483444,276.61912 84.354039,213.451 C 83.752929,206.04839 83.314917,167.62609 83.314917,122.29953 L 83.314917,43.944751 L 302.67245,43.944751 L 522.03,43.944751 L 522.67245,50.091442 C 523.71866,60.100994 523.38528,200.36355 522.2842,213.44475 C 518.75598,255.36082 509.28662,287.95513 491.16862,320.5471 C 454.85418,385.87212 392.78576,427.42888 321.81491,433.93472 C 311.45538,434.88437 299.21647,435.03144 291.31491,434.30123 z"
     id="path3417"
     style="fill:#002c64;fill-opacity:1" />
  <path
     d="M 319.81491,424.99578 C 343.95692,422.98447 380.3165,411.30247 402.71178,398.36176 C 440.4215,376.5719 469.60889,344.75114 489.7738,303.44475 C 500.78405,280.89102 506.26396,248.82714 506.29758,206.76132 C 506.31274,187.79514 505.99802,183.3621 503.78611,171.38602 C 497.04441,134.88388 478.73173,100.04776 453.46318,75.656991 C 447.5891,69.986961 446.3804,68.261721 446.12302,65.17998 C 445.60223,58.944228 445.84794,58.975966 397.96604,58.959493 C 360.52869,58.946613 354.68626,59.14923 351.7052,60.563834 C 346.83369,62.875517 345.45281,70.090351 349.81491,70.440211 C 355.18134,70.870631 359.21079,72.214881 363.31491,74.943921 C 368.63637,78.482421 372.29602,78.711341 379.31491,75.944751 C 385.83998,73.372811 389.12526,73.417951 392.00046,76.119061 C 393.70777,77.723001 394.31491,79.395991 394.31491,82.496621 C 394.31491,88.106871 392.4951,89.472951 385.2043,89.335691 C 378.76216,89.214401 372.55536,86.624221 362.30591,79.779901 C 353.43227,73.854311 351.50489,73.866041 332.45446,79.961491 C 317.92841,84.609311 315.94045,85.512161 314.30264,88.205331 C 310.83456,93.908131 310.81617,99.754831 314.23502,109.71206 C 315.92896,114.6456 317.31491,119.59243 317.31491,120.70503 C 317.31491,122.06415 318.19276,122.94826 319.99019,123.39939 C 322.1906,123.95165 323.08095,123.53996 325.00608,121.0801 C 328.58705,116.50447 332.94272,115.47779 340.53125,117.42063 C 351.98337,120.35264 359.7199,124.9457 372.20077,136.22235 C 379.05418,142.41451 386.93727,162.8748 389.35452,180.74429 C 390.98525,192.7995 390.08681,212.89379 387.4663,222.97555 C 380.20393,250.91577 363.84193,275.85477 343.62863,289.79306 C 339.15122,292.88051 326.82741,298.87091 321.38833,300.60372 C 314.22094,302.88713 297.10652,303.4165 288.65753,301.61612 C 271.5587,297.97256 251.96003,284.31061 238.57291,266.70285 C 233.95465,260.62856 228.99096,247.1509 227.23031,235.90485 C 225.80144,226.77803 226.6088,210.49899 228.86497,202.94475 C 234.6551,183.55786 251.46352,165.22234 273.00297,154.79664 C 284.69846,149.1357 288.10028,144.66761 286.88498,136.56341 C 286.0343,130.89073 283.30873,126.72119 278.14042,123.18616 L 273.81491,120.2276 L 182.81491,119.83617 L 91.814917,119.44475 L 91.92059,137.36843 L 92.026262,155.29211 L 95.655904,158.61843 L 99.285547,161.94475 L 154.80022,161.94475 C 185.3333,161.94475 210.31491,162.09294 210.31491,162.27406 C 210.31491,162.45518 208.29171,166.15363 205.8189,170.49284 C 191.61943,195.40968 187.83044,222.64218 194.34698,252.94475 C 196.82457,264.46583 206.60813,283.77326 216.49417,296.65128 C 230.94306,315.47309 254.49319,330.3873 277.31491,335.16883 C 287.61786,337.32748 306.79757,338.02275 318.58471,336.66487 L 325.35452,335.88499 L 321.74375,340.91092 C 315.14934,350.08986 308.69031,368.4428 304.68498,389.38236 C 302.6765,399.88258 297.17993,414.28488 293.37323,419.02181 C 291.69115,421.11492 290.31491,423.28415 290.31491,423.8423 C 290.31491,424.40369 293.55433,425.01133 297.56491,425.20224 C 301.55241,425.39206 305.71491,425.62945 306.81491,425.72978 C 307.91491,425.83011 313.76491,425.49981 319.81491,424.99578 z"
     id="path3415"
     style="fill:#ffffff;fill-opacity:1" />
  <path
     d="M 276.25667,420.96145 C 280.67562,419.69411 286.06652,414.52769 288.27377,409.44475 C 289.22911,407.24475 291.24994,399.81975 292.7645,392.94475 C 295.53592,380.36455 299.39954,369.09693 305.18471,356.72324 C 306.90632,353.04094 308.31491,349.85382 308.31491,349.64074 C 308.31491,349.42766 305.72741,349.17923 302.56491,349.08868 C 299.40241,348.99812 293.00755,348.2214 288.35411,347.36264 C 283.70067,346.50388 278.51057,346.06067 276.82055,346.37771 C 271.98676,347.28454 256.11844,364.43461 245.35614,380.38365 C 239.45692,389.12591 231.6363,395.5196 221.09084,400.22154 C 217.3926,401.87049 214.5784,403.56207 214.83707,403.9806 C 216.42184,406.54482 239.50739,414.40575 260.31491,419.46641 C 271.55997,422.20135 271.84139,422.22774 276.25667,420.96145 z"
     id="path3413"
     style="fill:#ffffff;fill-opacity:1" />
  <path
     d="M 212.69276,391.94411 C 223.11897,385.85139 228.75061,380.6038 235.05752,371.10454 C 241.40196,361.54874 245.2894,357.58118 256.00982,349.72043 C 259.96702,346.8188 263.22952,344.12831 263.25982,343.74154 C 263.29012,343.35478 261.17741,342.09661 258.56491,340.94561 C 253.56188,338.7414 243.11209,332.65262 234.96518,327.19475 C 229.32229,323.41441 224.21349,322.98736 214.47578,325.48205 C 208.74641,326.94984 192.31612,335.21077 183.81491,340.89791 C 171.93519,348.84521 163.81111,351.94159 154.49518,352.07273 C 151.09603,352.12058 148.31491,352.3587 148.31491,352.6019 C 148.31491,356.38109 160.87328,368.75909 176.56348,380.44475 C 191.04998,391.23393 199.01236,395.94475 202.76205,395.94475 C 204.55333,395.94475 208.71711,394.26735 212.69276,391.94411 z"
     id="path3411"
     style="fill:#ffffff;fill-opacity:1" />
  <path
     d="M 157.61457,342.29084 C 159.37476,341.38119 164.18991,338.30461 168.31491,335.454 C 184.41662,324.3268 200.75797,317.22608 212.56491,316.22627 C 216.27741,315.91189 219.31491,315.4912 219.31491,315.29139 C 219.31491,314.6263 195.06756,283.49692 192.00504,280.23027 C 185.86788,273.68404 169.56614,273.53017 156.64619,279.89654 C 147.07321,284.61367 136.1317,287.16741 125.33135,287.20541 C 118.31068,287.23011 114.92866,286.79637 112.54976,285.56619 C 110.48398,284.49794 109.31491,284.29916 109.31491,285.01616 C 109.31491,287.09112 130.35743,328.23472 133.8566,333.00155 C 140.90093,342.59784 150.07759,346.18589 157.61457,342.29084 z"
     id="path3409"
     style="fill:#ffffff;fill-opacity:1" />
  <path
     d="M 123.31491,276.48433 C 142.25236,272.21423 166.56223,267.58572 172.04266,267.20673 C 176.45065,266.90191 179.20095,267.24028 181.45499,268.36474 C 183.20651,269.23852 184.78318,269.80981 184.95871,269.63428 C 185.13424,269.45875 184.36937,266.8693 183.25901,263.87994 C 182.14864,260.89059 180.66564,253.04475 179.96344,246.44475 C 179.26124,239.84475 178.13802,233.43372 177.46738,232.19802 C 176.79674,230.96231 174.35058,228.93731 172.03147,227.69802 C 167.97547,225.53055 166.5964,225.42541 135.81491,224.93689 C 107.47551,224.48713 103.324,224.21542 99.52343,222.56171 C 97.163112,221.53468 94.989598,220.93674 94.693398,221.23294 C 94.199034,221.7273 97.18677,241.54167 100.79986,261.7304 C 102.49346,271.19364 103.26811,272.97617 106.94345,275.8672 C 110.0928,278.34448 114.35312,278.50507 123.31491,276.48433 z"
     id="path3407"
     style="fill:#ffffff;fill-opacity:1" />
  <path
     d="M 297.46432,270.48193 C 301.06338,265.90647 308.25933,266.21729 312.27351,271.1216 C 313.70441,272.8698 315.24872,272.98474 333.81491,272.72478 L 353.81491,272.44475 L 354.07521,227.69475 L 354.3355,182.94475 L 347.32521,182.94475 L 340.31491,182.94475 L 340.31491,174.44475 C 340.31491,164.64153 340.43223,164.7213 330.00821,167.43642 C 322.02055,169.51694 314.86259,173.35231 309.35803,178.50119 L 304.66672,182.88936 L 300.74081,178.85585 C 295.64768,173.62311 288.35149,169.50466 280.67057,167.52688 C 270.20345,164.83167 270.44024,164.68222 270.10535,174.19475 L 269.81491,182.44475 L 262.56491,182.73856 L 255.31491,183.03237 L 255.31491,227.32189 C 255.31491,251.68113 255.61491,271.91142 255.98158,272.27808 C 256.34824,272.64475 265.39598,272.94475 276.08766,272.94475 L 295.52707,272.94475 L 297.46432,270.48193 z"
     id="path3405"
     style="fill:#ffffff;fill-opacity:1" />
  <path
     d="M 265.31491,229.44475 C 265.31491,194.61142 265.35247,193.94475 267.31491,193.94475 C 269.27047,193.94475 269.31491,194.61142 269.31491,223.94475 L 269.31491,253.94475 L 274.63677,253.94475 C 277.56379,253.94475 282.17629,254.70013 284.88677,255.62336 C 289.60901,257.23184 301.31491,263.55167 301.31491,264.49265 C 301.31491,264.74131 293.21491,264.94475 283.31491,264.94475 L 265.31491,264.94475 L 265.31491,229.44475 z"
     id="path3403"
     style="fill:#c30035;fill-opacity:1" />
  <path
     d="M 311.81491,262.39375 C 321.1537,256.58368 326.36684,254.64104 333.92046,254.15628 L 341.37151,253.6781 L 341.09321,223.81087 L 340.81491,193.94363 L 343.56491,193.94419 L 346.31491,193.94475 L 346.31491,229.44475 L 346.31491,264.94475 L 327.06491,264.91354 L 307.81491,264.88233 L 311.81491,262.39375 z"
     id="path3401"
     style="fill:#c30035;fill-opacity:1" />
  <path
     d="M 297.81491,250.2838 C 293.88907,247.33785 284.32866,242.94475 281.84343,242.94475 L 279.31491,242.94475 L 279.31491,211.83346 L 279.31491,180.72217 L 283.06491,181.40795 C 288.18819,182.34487 294.72466,186.30434 297.79634,190.33152 L 300.34555,193.6737 L 300.08023,222.72915 C 299.81662,251.5974 299.80202,251.77493 297.81491,250.2838 z"
     id="path3399"
     style="fill:#c30035;fill-opacity:1" />
  <path
     d="M 311.31491,222.73535 C 311.31491,196.72217 311.50842,193.10899 313.01902,190.91726 C 316.13515,186.39603 322.39218,182.58368 328.61142,181.41695 L 332.31491,180.72217 L 332.31491,211.83346 L 332.31491,242.94475 L 329.78167,242.94475 C 327.16738,242.94475 318.90093,246.72977 314.06491,250.14109 L 311.31491,252.08094 L 311.31491,222.73535 z"
     id="path3397"
     style="fill:#c30035;fill-opacity:1" />
  <path
     d="M 178.31491,216.05522 C 178.31491,212.01643 181.09659,197.4033 182.96684,191.61704 C 184.3929,187.20504 184.38587,186.41907 182.88515,182.4895 C 179.67988,174.09661 181.70312,174.50942 140.96226,173.93585 L 104.81492,173.42694 L 97.460861,170.18612 L 90.106804,166.94531 L 90.793399,175.19503 C 92.107905,190.98936 94.225354,204.95375 95.813137,208.29976 C 96.692127,210.15209 98.535788,212.17999 99.910162,212.80619 C 101.60659,213.57913 112.33287,213.94475 133.31274,213.94475 C 164.26659,213.94475 173.0271,214.68811 175.37206,217.51361 C 177.22654,219.74812 178.31491,219.20876 178.31491,216.05522 z"
     id="path3393"
     style="fill:#ffffff;fill-opacity:1" />
</svg>
